<mxfile host="app.diagrams.net" modified="2023-05-31T23:12:50.765Z" agent="Mozilla/5.0 (Windows NT 10.0; Win64; x64) AppleWebKit/537.36 (KHTML, like Gecko) Chrome/113.0.0.0 Safari/537.36" version="21.3.6" etag="mZ1TjQBTz5lQrV6d0XQo" type="github">
  <diagram name="PÃ¡gina-1" id="ij_7CsFe-NvirslIhq4F">
    <mxGraphModel>
      <root>
        <mxCell id="0" />
        <mxCell id="1" parent="0" />
      </root>
    </mxGraphModel>
  </diagram>
</mxfile>
